<svg width="100%" viewBox="0 0 680 220" xmlns="http://www.w3.org/2000/svg">
  <rect width="680" height="220" fill="#080808" rx="6"/>
  <rect x="0" y="0" width="680" height="4" fill="#c0392b"/>
  <rect x="0" y="216" width="680" height="4" fill="#c0392b"/>
  <line x1="0" y1="55" x2="680" y2="68" stroke="#1c1c1c" stroke-width="8"/>
  <line x1="0" y1="160" x2="680" y2="148" stroke="#1c1c1c" stroke-width="6"/>
  <text x="28" y="128" font-family="Impact, sans-serif" font-size="100" letter-spacing="4" fill="#f0f0f0">IS THIS</text>
  <text x="320" y="128" font-family="Impact, sans-serif" font-size="100" letter-spacing="4" fill="#c0392b">AURA</text>
  <line x1="30" y1="72" x2="180" y2="155" stroke="#c0392b" stroke-width="2" opacity="0.9"/>
  <line x1="60" y1="60" x2="240" y2="170" stroke="#e74c3c" stroke-width="1" opacity="0.5"/>
  <line x1="500" y1="50" x2="340" y2="165" stroke="#c0392b" stroke-width="2" opacity="0.8"/>
  <line x1="620" y1="40" x2="450" y2="180" stroke="#e74c3c" stroke-width="1" opacity="0.4"/>
  <line x1="650" y1="90" x2="400" y2="140" stroke="#ff6b6b" stroke-width="1.5" opacity="0.6"/>
  <rect x="28" y="140" width="6" height="6" fill="#c0392b" opacity="0.8"/>
  <rect x="42" y="148" width="4" height="4" fill="#e74c3c" opacity="0.6"/>
  <rect x="600" y="60" width="6" height="6" fill="#c0392b" opacity="0.8"/>
  <rect x="640" y="150" width="4" height="4" fill="#e74c3c" opacity="0.5"/>
  <rect x="320" y="50" width="5" height="5" fill="#ff6b6b" opacity="0.7"/>
  <text x="340" y="178" text-anchor="middle" font-family="monospace" font-size="10" fill="#888" letter-spacing="3">final term group project · oop</text>
  <text x="340" y="196" text-anchor="middle" font-family="monospace" font-size="9" fill="#c0392b" letter-spacing="2">⚠ papwet yan ⚠</text>
</svg>
