<svg width="100%" viewBox="0 0 680 280" xmlns="http://www.w3.org/2000/svg">
  <rect width="680" height="280" fill="#080808" rx="6"/>
  <rect x="0" y="0" width="680" height="3" fill="#c0392b"/>
  <rect x="0" y="277" width="680" height="3" fill="#c0392b"/>
  <line x1="40" y1="55" x2="640" y2="55" stroke="#c0392b" stroke-width="0.5" opacity="0.6"/>
  <line x1="40" y1="225" x2="640" y2="225" stroke="#333" stroke-width="0.5"/>
  <text x="340" y="38" text-anchor="middle" font-family="Impact, sans-serif" font-size="22" fill="#c0392b" letter-spacing="3">⚠ IS-THIS-AURA ⚠</text>
  <line x1="40" y1="90" x2="640" y2="90" stroke="#1e1e1e" stroke-width="0.5"/>
  <line x1="40" y1="130" x2="640" y2="130" stroke="#1e1e1e" stroke-width="0.5"/>
  <line x1="40" y1="170" x2="640" y2="170" stroke="#1e1e1e" stroke-width="0.5"/>
  <line x1="40" y1="210" x2="640" y2="210" stroke="#1e1e1e" stroke-width="0.5"/>
  <text x="55" y="78" font-family="monospace" font-size="11" fill="#c0392b">01</text>
  <text x="95" y="78" font-family="monospace" font-size="13" fill="#f0f0f0">Go, Sean Ethan G.</text>
  <text x="55" y="118" font-family="monospace" font-size="11" fill="#c0392b">02</text>
  <text x="95" y="118" font-family="monospace" font-size="13" fill="#f0f0f0">Navarro, Vince Justine</text>
  <text x="55" y="158" font-family="monospace" font-size="11" fill="#c0392b">03</text>
  <text x="95" y="158" font-family="monospace" font-size="13" fill="#f0f0f0">Obedoza, John Kyle B.</text>
  <text x="55" y="198" font-family="monospace" font-size="11" fill="#c0392b">04</text>
  <text x="95" y="198" font-family="monospace" font-size="13" fill="#f0f0f0">Trespeces, Guillermo II O.</text>
  <text x="340" y="248" text-anchor="middle" font-family="monospace" font-size="9" fill="#555" letter-spacing="2">final term · oop · is this aura</text>
  <line x1="30" y1="100" x2="100" y2="160" stroke="#c0392b" stroke-width="1" opacity="0.15"/>
  <line x1="580" y1="70" x2="640" y2="140" stroke="#c0392b" stroke-width="1" opacity="0.15"/>
</svg>
